<svg xmlns="http://www.w3.org/2000/svg" xmlns:xlink="http://www.w3.org/1999/xlink" width="513.272" height="517.253" viewBox="0 0 513.272 517.253">
  <defs>
    <filter id="Path_1" x="0" y="0" width="513.272" height="517.253" filterUnits="userSpaceOnUse">
      <feOffset dy="3" input="SourceAlpha"/>
      <feGaussianBlur stdDeviation="3" result="blur"/>
      <feFlood flood-opacity="0.161"/>
      <feComposite operator="in" in2="blur"/>
      <feComposite in="SourceGraphic"/>
    </filter>
    <filter id="Path_1-2" x="83.034" y="68.272" width="346.281" height="380.708" filterUnits="userSpaceOnUse">
      <feOffset dy="3" input="SourceAlpha"/>
      <feGaussianBlur stdDeviation="3" result="blur-2"/>
      <feFlood flood-opacity="0.161"/>
      <feComposite operator="in" in2="blur-2"/>
      <feComposite in="SourceGraphic"/>
    </filter>
  </defs>
  <g id="Group_1" data-name="Group 1" transform="translate(-128.433 -289.417)">
    <g transform="matrix(1, 0, 0, 1, 128.43, 289.42)" filter="url(#Path_1)">
      <path id="Path_1-3" data-name="Path 1" d="M138.39,0H356.882a138.39,138.39,0,0,1,138.39,138.39V360.863a138.39,138.39,0,0,1-138.39,138.39H138.39A138.39,138.39,0,0,1,0,360.863V138.39A138.39,138.39,0,0,1,138.39,0Z" transform="translate(9 6)" fill="#ff8c00"/>
    </g>
    <g id="Group_2" data-name="Group 2" transform="translate(220.467 363.689)">
      <g id="Group_1-2" data-name="Group 1" transform="translate(0 0)">
        <g transform="matrix(1, 0, 0, 1, -92.03, -74.27)" filter="url(#Path_1-2)">
          <path id="Path_1-4" data-name="Path 1" d="M503.531,134.109a60.232,60.232,0,1,0,60.232,60.232A60.232,60.232,0,0,0,503.531,134.109Zm259.6-29.94a60.232,60.232,0,1,0-103.556,0,181.8,181.8,0,0,1,0,180.7,60.232,60.232,0,1,0,103.557,0A181.8,181.8,0,0,1,763.128,104.169ZM579.966,98.181h0a28.781,28.781,0,0,0-6.692,41.211,90.525,90.525,0,0,1,.7,109.192,28.781,28.781,0,0,0,6.692,41.211h0a28.672,28.672,0,0,0,38.746-6.34,147.794,147.794,0,0,0-.7-179.287,28.961,28.961,0,0,0-38.745-5.988Z" transform="translate(-351.27 61.11)" fill="#fff"/>
        </g>
      </g>
    </g>
  </g>
</svg>
